<?xml version="1.0" encoding="UTF-8"?>
<svg version="1.1" viewBox="0 0 2048 2024" width="797" height="788" xmlns="http://www.w3.org/2000/svg">
<path transform="translate(0)" d="m0 0h2048v2024h-2048z" fill="#FFFFFE"/>
<path transform="translate(544,479)" d="m0 0h900l84 1 2 2 1 14v21l-1 23-5 5-36 1v829l13 5 9 6 7 10 8 20 21 64 20 60 4 13v8l-3 3-2 1-59 1-756 1h-253l-6-3-4-5 2-10 15-45 14-43 17-51 7-16 7-9 11-7 10-3 1-830h-36l-6-5v-54l2-5 1-1z" fill="#1E1D1E"/>
<path transform="translate(1363,810)" d="m0 0h17v564l-4 1h-91l-1-43 55-3 15-1 5-2 1-3 1-28v-21l-1-23-3-2-5-1-39-2-70-1h-542l-3 9v74l6 4 83 1v41l-2 1h-59l-47-1-1-2v-447l1-112 55-1h179l1 1 1 52 2 9 4 6 9 6 6 2 9 1 32 1v32l3 7 8 4v21l3 6 10 11 7 8 11 12 10 10 5 1 6-3 11-11 7-8 11-12 8-10 2-6 1-19 5-5 1-38 42-1 9-3 7-5 6-12 1-7 1-49 1-1 182-1z" fill="#FFFFFE"/>
<path transform="translate(854,1391)" d="m0 0h341l110 1v21l-1 27v48l1 55-1 1-552 1-2-1-1-104-2-35v-13z" fill="#FFFFFE"/>
<path transform="translate(1397,545)" d="m0 0h74l1 2v827l-37 1h-37l-2-1v-746z" fill="#FFFFFE"/>
<path transform="translate(680,545)" d="m0 0h336l-2 10-1 4v16l4 15 6 11 13 17 4 9v12l-4 10-7 8-10 7-13 6-65 1-13 4-6 5-4 8-2 8-1 53h-236v-203z" fill="#FFFFFE"/>
<path transform="translate(590,545)" d="m0 0h72l1 1v616l-1 211-4 1h-70l1-828z" fill="#FFFFFE"/>
<path transform="translate(1058,545)" d="m0 0h322l1 1v157l-1 47h-40l-188-1-1-55-2-9-4-6-5-4-10-4-11-1h-42l1-5 5-12 2-8v-21l-4-14-7-11-12-15-8-14-1-11 2-10z" fill="#FFFFFE"/>
<path transform="translate(971,691)" d="m0 0h153l5 3 1 1v169l-3 3-3 1h-179l-6-2-3-5v-162l2-5 2-2z" fill="#FFFFFE"/>
<path transform="translate(547,496)" d="m0 0h967l1 1-1 31-3 1h-271l-694-1v-31z" fill="#FFFFFE"/>
<path transform="translate(1318,1392)" d="m0 0h166l11 4 8 9 7 19 32 96 7 22v3h-227l-1-1-1-107-2-35z" fill="#FFFFFE"/>
<path transform="translate(577,1392)" d="m0 0h157v17l-1 17v118l-3 1h-219l1-7 16-48 14-43 13-38 5-8 8-7z" fill="#FFFFFE"/>
<path transform="translate(1346,1262)" d="m0 0 2 1-1 29-1 21h-29l-84-1h-518l-1-1-1-17v-28l482-1 108-1z" fill="#FFFFFE"/>
<path transform="translate(1045,1420)" d="m0 0h27l32 2 12 3 2 2 2 11 1 28-1 37-4 4-7 2-32 2-33 1-228 1-5-3-3-4v-53l1-19 3-11 1-1 8-1z" fill="#1E1D1E"/>
<path transform="translate(968,1332)" d="m0 0h265v20l-1 23h-392l-1-5v-37z" fill="#FFFFFE"/>
<path transform="translate(1025,707)" d="m0 0h16l16 4 12 5 11 7 8 7 8 11 6 12 4 13v24l-4 15-8 14-9 11-13 10-12 6-11 3h-27l-15-4-15-8-10-8-9-11-8-16-3-13-1-13 3-19 7-16 7-10 9-9 13-8 15-5z" fill="#1E1D1E"/>
<path transform="translate(1103,1439)" d="m0 0h4l-1 18-1 35-279-1-1-1-1-44 1-3 24-1 202-1 40-1z" fill="#FFFFFE"/>
<path transform="translate(1195,1419)" d="m0 0h18l10 3 11 6 8 8 7 14 2 11-1 13-4 11-6 9-9 8-12 6-8 2h-14l-12-3-10-6-7-6-7-11-3-9-1-13 3-14 5-10 9-10 14-7z" fill="#1E1D1E"/>
<path transform="translate(1372,767)" d="m0 0h8v26h-20l-54-1-154-1v-21l139-1 65-1z" fill="#FFFFFE"/>
<path transform="translate(680,770)" d="m0 0h235v20l-1 1-232 1-3-1v-20z" fill="#FFFFFE"/>
<path transform="translate(1201,1438)" d="m0 0 11 1 8 4 5 5 4 6 1 3v11l-4 9-6 7-10 5-7 1-9-2-8-5-7-8-3-10 1-10 6-10 12-6z" fill="#FFFFFE"/>
<path transform="translate(1029,545)" d="m0 0h14l1 2-2 7-1 16 4 13 8 12 8 9 8 14 3 12v11l-5 16-7 10-4 3h-18l2-4 7-9 4-8 2-6 1-10-2-13-5-10-7-9-10-14-4-10-1-4v-18l3-9z" fill="#FFFFFE"/>
<path transform="translate(990,890)" d="m0 0h78v25l-5 1h-71l-1-2-1-11z" fill="#FFFFFE"/>
<path transform="translate(1e3 933)" d="m0 0h60l1 1v13l-3 6-12 12-7 8-7 7-4-1-16-16-7-8-6-8v-13z" fill="#FFFFFE"/>
<path transform="translate(993,736)" d="m0 0 8 2 8 6 7 10 4 7-3 9-21-3h-8l-9 2-5 4h-3v-9l4-14 7-11 3-2z" fill="#FFFFFE"/>
<path transform="translate(985,772)" d="m0 0h15l15 4 1 9-10 7-10 8-6 9-2 10-4-2-6-9-5-12-2-11 5-8 3-3z" fill="#FFFFFE"/>
<path transform="translate(1018,791)" d="m0 0 4 2 5 4-2 10v22l4 8 1 3-11-1-16-6-8-5-2-7 1-9 6-8 8-7z" fill="#FFFFFE"/>
<path transform="translate(1023,715)" d="m0 0h7l7 7 2 6v14l-4 14-9 2-8-11-7-9-10-5-9-2v-3l10-6 12-5z" fill="#FFFFFE"/>
<path transform="translate(1033,797)" d="m0 0h10l8 11 8 9 10 5 6 1v3l-11 7-9 4-7 2h-9l-7-6-3-7v-14z" fill="#FFFFFE"/>
<path transform="translate(1095,782)" d="m0 0h2l-1 10-4 12-6 10-3 3-3 1h-9l-8-5-7-7-6-10 2-5 4-6 14 2h13l10-4z" fill="#FFFFFE"/>
<path transform="translate(1080,736)" d="m0 0 4 2 7 11 5 13 1 8-4 7-6 4-3 1h-17l-9-4-1-2v-10l10-7 8-8 4-8z" fill="#FFFFFE"/>
<path transform="translate(1040,715)" d="m0 0 13 2 16 8 6 5v11l-6 9-7 6-10 6-9-5-1-4 2-8v-18l-3-8z" fill="#FFFFFE"/>
<path transform="translate(802,1333)" d="m0 0h21v41l-1 1h-18l-1-1z" fill="#FFFFFE"/>
<path transform="translate(1248,1332)" d="m0 0h21l-1 42-1 1h-17l-1-1z" fill="#FFFFFE"/>
<path transform="translate(1032,761)" d="m0 0h7l7 4 4 6v11l-6 7-4 2h-8l-6-4-4-5-1-3v-8l7-8z" fill="#FFFFFE"/>
<path transform="translate(957,839)" d="m0 0h6l4 4 1 4-3 5-3 2-7-1-3-5 1-5z" fill="#1E1D1E"/>
<path transform="translate(956,706)" d="m0 0h8l3 3 1 5-5 6h-6l-4-4-1-5z" fill="#1E1D1E"/>
<path transform="translate(1107,705)" d="m0 0 7 2 2 8-5 5-7-1-3-4 1-7z" fill="#1E1D1E"/>
<path transform="translate(1106,839)" d="m0 0 7 1 2 2v8l-5 4-6-1-3-4 1-7z" fill="#1E1D1E"/>
</svg>
